<?xml version="1.0" standalone="no"?>
<!DOCTYPE svg PUBLIC "-//W3C//DTD SVG 20010904//EN"
 "http://www.w3.org/TR/2001/REC-SVG-20010904/DTD/svg10.dtd">
<svg version="1.0" xmlns="http://www.w3.org/2000/svg"
 width="250.000000pt" height="250.000000pt" viewBox="0 0 250.000000 250.000000"
 preserveAspectRatio="xMidYMid meet">
<metadata>
Created by potrace 1.11, written by Peter Selinger 2001-2013
</metadata>
<g transform="translate(0.000000,250.000000) scale(0.100000,-0.100000)"
fill="#000000" stroke="none">
<path d="M1052 2460 c2 -9 -6 -14 -24 -14 -14 -1 -30 -4 -34 -8 -12 -13 -26
-9 -18 5 4 6 -2 4 -13 -6 -11 -10 -27 -15 -37 -11 -9 3 -16 1 -16 -6 0 -6 -4
-9 -9 -5 -5 3 -13 1 -16 -5 -5 -8 -11 -8 -20 0 -10 8 -15 8 -21 -1 -5 -8 -3
-9 6 -4 9 6 11 4 6 -4 -5 -7 -14 -10 -22 -7 -8 3 -14 2 -14 -3 0 -5 -8 -8 -17
-7 -10 0 -17 -4 -16 -10 1 -6 -9 -10 -22 -8 -14 1 -25 -2 -25 -7 0 -6 -4 -7
-10 -4 -5 3 -10 1 -10 -5 0 -6 -4 -9 -9 -5 -5 3 -12 1 -16 -5 -4 -6 -11 -7
-17 -4 -7 5 -9 1 -5 -9 4 -11 1 -15 -14 -12 -10 2 -19 0 -19 -6 0 -5 -7 -9
-15 -9 -8 0 -15 -5 -15 -10 0 -6 -6 -9 -12 -8 -7 2 -12 -2 -11 -9 2 -7 -3 -10
-11 -7 -7 3 -30 -10 -50 -29 -20 -19 -36 -32 -36 -28 -1 3 -8 -3 -18 -15 -9
-11 -21 -21 -27 -23 -5 -2 -9 -7 -7 -12 1 -5 -2 -8 -6 -7 -4 2 -33 -22 -64
-54 -31 -31 -60 -53 -64 -50 -4 4 -4 1 0 -6 4 -7 1 -15 -8 -18 -9 -3 -14 -10
-11 -15 3 -4 -4 -13 -15 -19 -11 -6 -18 -15 -15 -19 3 -5 -2 -12 -11 -15 -8
-3 -12 -10 -9 -16 3 -5 -1 -10 -10 -10 -9 0 -14 -4 -10 -10 3 -5 -2 -18 -12
-28 -10 -10 -19 -25 -21 -33 -2 -8 -11 -20 -20 -27 -9 -7 -16 -18 -14 -24 1
-5 -2 -16 -9 -24 -6 -7 -7 -19 -3 -25 4 -8 3 -9 -4 -5 -7 4 -12 1 -12 -8 0 -9
-4 -16 -9 -16 -5 0 -7 -9 -4 -20 3 -12 0 -20 -6 -20 -7 0 -9 -4 -6 -10 3 -5
-1 -10 -10 -10 -13 0 -14 -4 -5 -20 8 -15 8 -20 -1 -20 -6 0 -9 -7 -5 -15 3
-10 -1 -15 -12 -15 -15 0 -15 -2 -2 -10 8 -5 10 -10 3 -10 -6 0 -10 -11 -9
-25 2 -13 -1 -22 -5 -19 -5 3 -7 -9 -5 -26 2 -20 0 -30 -8 -27 -7 3 -11 -13
-10 -49 0 -29 -4 -50 -8 -48 -4 3 -8 1 -8 -5 0 -5 5 -11 11 -13 5 -2 7 -11 4
-21 -4 -9 -10 -15 -14 -13 -4 3 -7 -16 -7 -40 0 -31 4 -43 13 -40 7 3 10 -1 6
-9 -3 -8 -8 -13 -12 -11 -4 3 -7 -15 -7 -40 0 -33 4 -44 16 -44 13 0 13 -1 0
-10 -10 -6 -11 -10 -2 -10 6 0 12 -5 12 -11 0 -5 -4 -8 -8 -5 -4 2 -8 -4 -8
-14 0 -10 5 -16 10 -13 5 4 7 -1 3 -12 -4 -9 -2 -24 4 -31 9 -11 8 -14 -1 -14
-9 0 -7 -7 6 -22 12 -13 13 -18 4 -13 -13 8 -13 6 -2 -8 8 -9 11 -21 7 -27 -3
-5 -2 -10 4 -10 6 0 8 -6 5 -14 -3 -8 1 -27 9 -43 8 -15 13 -36 12 -46 -2 -9
1 -15 6 -11 5 3 9 -4 9 -15 0 -12 4 -21 10 -21 5 0 7 -7 3 -15 -3 -9 3 -23 13
-31 11 -9 12 -12 4 -8 -13 7 -13 6 0 -12 8 -10 20 -22 25 -26 6 -4 6 -8 2 -8
-11 0 34 -82 50 -93 7 -4 9 -15 6 -24 -5 -12 -3 -14 7 -8 10 6 12 4 7 -8 -4
-10 -2 -16 6 -14 7 1 11 -4 9 -10 -1 -7 5 -13 14 -13 8 0 13 -4 10 -9 -4 -5
10 -25 29 -45 19 -20 32 -36 29 -36 -2 0 6 -11 18 -24 13 -13 26 -21 31 -19 4
2 7 -3 7 -12 0 -9 5 -13 10 -10 6 3 10 0 10 -8 0 -8 15 -22 32 -31 18 -8 26
-16 18 -16 -9 -1 -6 -5 8 -10 12 -5 22 -14 22 -20 0 -5 7 -10 15 -10 9 0 18
-7 21 -15 4 -8 12 -15 20 -15 8 0 14 -4 14 -10 0 -5 7 -10 15 -10 8 0 15 -4
15 -8 0 -4 22 -19 50 -33 27 -13 50 -27 50 -31 0 -5 9 -8 20 -8 11 0 20 -4 20
-10 0 -5 9 -10 20 -10 11 0 20 -4 20 -9 0 -5 8 -8 18 -7 9 2 23 -4 30 -13 10
-12 12 -12 6 -1 -7 13 -6 13 9 1 10 -8 20 -11 24 -7 3 3 14 -1 24 -10 10 -9
25 -14 34 -10 11 4 14 2 9 -6 -5 -8 -2 -9 9 -5 10 4 17 1 17 -6 0 -8 3 -8 9 2
5 8 10 9 12 2 2 -6 20 -12 39 -13 19 -2 37 -6 40 -10 10 -13 55 -16 69 -4 11
8 13 8 8 -1 -6 -9 27 -12 133 -12 99 0 138 3 134 11 -5 7 -2 8 7 2 19 -12 68
-13 66 0 -1 5 19 10 45 10 35 1 48 5 49 16 0 10 2 11 6 3 3 -8 11 -9 21 -4 20
10 81 31 99 35 7 1 16 5 19 9 12 12 26 8 19 -5 -4 -7 1 -4 9 6 9 11 16 16 16
10 0 -5 5 -1 11 9 5 9 15 17 22 17 7 0 6 -4 -3 -10 -10 -7 -11 -10 -2 -10 7 0
15 7 18 15 4 8 10 12 15 9 5 -3 9 -1 9 5 0 5 9 8 20 6 11 -2 19 1 17 8 -1 7 4
11 11 9 6 -1 12 2 12 8 0 5 7 10 16 10 9 0 12 5 8 12 -5 7 -3 8 5 4 7 -5 18 0
26 10 8 11 15 15 15 11 0 -8 13 1 51 35 10 10 24 18 29 18 6 0 10 8 10 18 0
14 2 15 10 2 8 -13 10 -12 10 4 0 11 3 17 6 13 8 -7 124 108 124 123 0 6 5 8
10 5 6 -3 10 -1 10 6 0 6 11 22 24 34 14 13 22 26 19 29 -4 3 -2 6 3 6 6 0 23
22 39 50 17 27 34 50 38 50 5 0 6 4 3 8 -3 5 4 19 15 30 11 12 17 22 13 22 -3
0 0 10 8 22 8 13 14 31 12 41 -1 9 1 15 4 13 4 -2 13 2 20 10 7 8 10 14 6 14
-3 0 0 8 7 17 9 11 10 14 2 9 -9 -5 -11 -2 -7 8 3 9 10 16 14 16 5 0 7 9 5 20
-2 11 0 20 6 20 5 0 9 12 9 26 0 14 3 23 8 21 4 -3 8 7 9 21 4 48 8 67 22 92
12 22 12 23 0 13 -12 -10 -15 -8 -15 7 0 10 4 16 8 14 8 -5 11 11 10 63 0 18
4 30 9 27 5 -3 4 7 -1 21 -7 17 -7 24 0 20 6 -3 10 -2 10 4 0 5 -6 12 -12 14
-10 4 -9 8 2 16 8 6 10 11 4 11 -12 0 -13 38 -1 58 5 7 4 12 -2 12 -6 0 -11 5
-11 11 0 5 6 7 13 3 9 -6 9 -4 1 7 -6 8 -11 29 -10 47 0 17 -2 32 -6 32 -5 0
-8 5 -8 11 0 5 6 7 13 3 6 -4 5 1 -4 12 -9 10 -14 25 -11 33 2 7 -2 17 -9 22
-12 7 -12 9 0 9 9 0 10 4 4 13 -5 6 -8 22 -7 35 1 13 -4 22 -13 22 -8 0 -12 4
-8 9 9 15 -36 141 -48 134 -6 -3 -7 -1 -3 5 4 7 4 18 -1 25 -4 6 -8 18 -10 26
-1 8 -9 18 -17 23 -8 5 -13 14 -10 21 2 6 -7 24 -21 40 -14 15 -20 27 -14 27
7 0 2 9 -11 20 -13 11 -19 20 -14 20 5 0 1 5 -8 11 -10 5 -18 15 -18 20 0 16
-27 39 -35 31 -5 -4 -5 -1 -1 6 5 8 0 20 -13 31 -11 10 -18 20 -16 23 3 2 -6
11 -20 18 -13 7 -27 21 -30 31 -3 10 -15 21 -26 24 -10 4 -19 13 -19 21 0 8
-11 20 -25 26 -14 6 -25 14 -25 17 0 4 -14 15 -30 25 -17 9 -27 22 -24 28 4 6
2 8 -3 5 -6 -4 -22 2 -36 13 -14 11 -30 20 -37 20 -6 0 -8 5 -4 12 5 8 0 9
-14 6 -12 -4 -20 -3 -17 2 7 11 -20 32 -29 23 -4 -4 -10 -3 -14 2 -10 15 -50
35 -67 35 -8 0 -15 5 -15 10 0 6 -9 10 -20 10 -11 0 -20 4 -20 8 0 7 -19 12
-62 15 -11 1 -14 5 -8 12 6 7 -2 10 -26 10 -19 -1 -34 1 -34 5 0 6 -16 10 -52
11 -10 0 -18 4 -18 9 0 5 -12 7 -27 6 -16 -2 -34 1 -40 6 -9 7 -13 7 -13 -1 0
-7 -5 -9 -10 -6 -6 4 -7 12 -4 18 5 8 3 8 -7 0 -7 -7 -20 -13 -29 -13 -13 0
-13 1 0 10 10 6 -22 9 -95 9 -74 0 -112 -4 -117 -12 -6 -9 -8 -9 -8 1 0 17
-38 15 -57 -3 -14 -14 -17 -14 -35 2 -14 12 -19 13 -16 3z m221 -194 c26 1 47
-1 47 -5 0 -9 43 -7 58 3 7 4 12 3 12 -1 0 -5 14 -10 32 -11 18 -2 35 -6 38
-11 3 -5 17 -7 32 -5 16 1 34 -3 40 -9 7 -7 27 -14 43 -15 17 -2 39 -11 49
-20 15 -13 18 -14 11 -2 -5 9 0 8 13 -4 15 -13 22 -15 22 -6 0 8 7 6 18 -7 9
-11 23 -18 29 -16 7 3 16 -2 19 -11 3 -9 12 -16 20 -16 8 0 14 -6 14 -12 0
-10 2 -10 8 -1 6 9 12 7 22 -7 8 -11 20 -20 27 -20 7 0 13 -4 13 -10 0 -5 7
-10 16 -10 8 0 12 -4 9 -10 -3 -5 0 -10 8 -10 19 0 137 -110 137 -128 0 -7 4
-11 8 -8 13 8 44 -33 36 -47 -4 -7 -4 -9 1 -5 8 8 27 -8 38 -32 14 -27 33 -58
46 -74 7 -9 10 -16 7 -16 -4 0 0 -7 8 -16 9 -8 16 -22 16 -30 0 -8 5 -12 10
-9 8 5 15 -31 11 -57 0 -5 4 -7 11 -5 15 3 11 -65 -4 -74 -6 -4 -8 -14 -5 -24
4 -9 3 -14 -3 -10 -6 3 -10 0 -10 -8 0 -17 -27 -30 -42 -20 -7 3 -8 1 -4 -5 6
-11 -6 -16 -26 -13 -5 0 -8 -4 -8 -9 0 -6 -15 -9 -35 -7 -19 3 -35 1 -35 -2 0
-4 -19 -5 -42 -3 -24 2 -54 4 -68 5 -14 1 -31 6 -37 10 -7 5 -17 6 -22 3 -5
-3 -12 1 -15 10 -5 13 -9 14 -20 5 -10 -8 -16 -9 -21 -1 -3 6 -11 8 -16 4 -6
-3 -17 2 -25 12 -9 11 -13 13 -9 7 8 -16 -11 -17 -20 -2 -4 6 -13 8 -21 5 -7
-3 -16 -1 -19 5 -4 5 -11 7 -16 4 -5 -4 -9 -2 -9 4 0 6 -7 7 -17 4 -9 -4 -14
-2 -10 3 3 6 -8 9 -29 8 -24 -2 -32 0 -28 8 5 7 0 9 -15 5 -17 -4 -21 -2 -17
9 4 11 2 12 -16 1 -16 -9 -22 -9 -25 0 -3 9 -10 10 -24 3 -13 -8 -19 -7 -19 0
0 7 -12 9 -30 6 -21 -3 -33 1 -40 12 -6 11 -9 12 -10 4 0 -8 -5 -10 -12 -6
-18 11 -270 12 -285 1 -7 -5 -17 -6 -22 -3 -5 4 -13 2 -16 -4 -4 -6 -16 -8
-26 -5 -11 4 -26 1 -34 -5 -12 -10 -15 -10 -15 -1 0 7 -5 9 -12 4 -7 -4 -26
-8 -42 -9 -16 -2 -32 -6 -35 -11 -3 -4 -19 -10 -36 -12 -16 -1 -33 -8 -37 -15
-5 -8 -8 -7 -8 3 0 10 -3 11 -13 2 -8 -6 -17 -8 -20 -4 -4 3 -7 1 -7 -4 0 -6
-8 -10 -17 -8 -10 1 -22 0 -28 -4 -5 -3 -14 -6 -20 -6 -5 -1 -9 -7 -7 -15 2
-10 0 -11 -11 -2 -10 9 -18 8 -35 -3 -14 -10 -23 -12 -27 -5 -5 8 -11 8 -19 1
-7 -6 -16 -8 -19 -4 -4 3 -7 2 -7 -4 0 -6 -10 -10 -23 -9 -12 1 -41 -1 -65 -5
-27 -4 -42 -2 -42 5 0 7 -3 7 -8 -1 -5 -7 -13 -9 -21 -3 -8 4 -20 6 -28 3 -7
-3 -13 1 -13 8 0 11 -3 11 -10 -1 -6 -10 -10 -11 -10 -2 0 6 -11 12 -25 12
-14 0 -25 5 -25 11 0 5 -5 7 -12 3 -6 -4 -8 -3 -4 4 3 6 0 16 -7 24 -17 16
-28 68 -15 68 5 0 7 4 3 9 -3 5 -1 12 5 16 5 3 10 15 10 26 0 10 5 19 11 19 5
0 7 5 4 10 -3 6 -1 10 4 10 6 0 10 3 9 8 -3 12 25 66 42 80 13 12 13 13 0 7
-10 -4 -9 -2 3 8 9 8 17 19 17 24 0 5 9 18 20 28 11 10 20 23 20 28 0 5 13 22
29 38 16 15 26 30 23 34 -3 3 4 8 17 12 17 4 19 8 9 14 -10 7 -10 9 2 9 9 0
22 9 30 20 8 11 19 20 24 20 5 0 25 17 44 38 19 20 31 30 27 22 -4 -8 2 -5 14
8 12 12 27 19 33 16 7 -4 8 -2 4 4 -4 7 3 14 19 18 13 3 22 10 19 15 -3 5 2 9
10 9 8 0 21 6 28 13 7 6 24 14 38 15 13 2 29 11 36 20 6 8 16 12 22 8 7 -4 12
-2 12 4 0 6 4 9 9 5 5 -3 12 -1 16 5 4 6 11 8 16 5 5 -4 9 -2 9 4 0 5 8 8 18
7 9 -2 20 1 23 5 3 5 21 11 40 14 60 10 64 11 74 16 6 3 17 5 25 4 8 -1 25 2
38 7 16 5 21 5 16 -3 -4 -8 0 -8 15 0 11 7 21 8 21 4 0 -4 5 -2 12 5 6 6 16 8
22 4 6 -4 32 -7 59 -6z m-64 -843 c12 10 13 9 6 -3 -8 -13 -7 -13 8 -1 14 11
20 11 32 1 9 -8 15 -8 15 -2 0 6 9 10 19 9 11 0 17 -5 15 -9 -3 -4 2 -8 10 -8
8 0 27 -5 43 -12 15 -6 32 -10 36 -9 5 1 6 -3 2 -9 -5 -9 7 -14 27 -12 3 1 12
-6 20 -16 11 -15 11 -16 -2 -7 -9 6 -7 1 5 -10 11 -11 27 -33 35 -50 8 -16 18
-32 22 -35 4 -3 8 -25 9 -48 2 -23 8 -42 13 -42 7 0 6 -3 -1 -8 -6 -4 -10 -20
-9 -35 2 -15 -1 -27 -6 -27 -5 0 -7 -4 -3 -9 3 -5 0 -15 -7 -23 -7 -7 -13 -19
-14 -25 -2 -30 -5 -34 -14 -28 -5 3 -10 3 -10 -2 0 -14 -57 -73 -64 -66 -3 3
-6 1 -6 -6 0 -7 -4 -9 -10 -6 -5 3 -10 1 -10 -4 0 -6 -6 -11 -14 -11 -7 0 -26
-6 -41 -14 -30 -16 -111 -12 -134 7 -12 10 -13 9 -6 -3 6 -9 -4 -6 -29 8 -20
12 -34 16 -30 10 3 -7 -5 -1 -20 15 -15 15 -31 27 -36 27 -6 0 -10 7 -10 15 0
8 -5 15 -11 15 -5 0 -7 4 -4 10 3 6 -1 7 -10 4 -11 -5 -16 -2 -15 7 3 19 -11
59 -19 59 -4 0 -8 6 -8 13 0 6 -4 21 -8 32 -5 16 -5 17 4 5 6 -8 11 -11 11 -6
0 5 -8 18 -17 28 -10 11 -13 19 -8 18 21 -4 29 1 16 9 -8 6 -10 14 -5 22 5 8
10 25 12 39 2 13 8 30 14 37 5 7 6 18 2 24 -4 7 -3 9 4 5 6 -3 13 3 17 14 3
11 11 20 16 20 5 0 9 7 9 16 0 8 4 13 8 10 5 -3 21 6 36 19 16 14 33 22 37 19
5 -3 9 0 9 6 0 7 7 10 15 6 10 -3 15 1 15 11 0 13 3 14 12 5 9 -9 15 -9 27 1z
m-1179 -124 c0 -5 -4 -9 -8 -9 -5 0 -9 7 -9 15 0 8 4 12 9 9 4 -3 8 -9 8 -15z
m-5 -108 c3 -5 2 -12 -3 -15 -5 -3 -9 1 -9 9 0 17 3 19 12 6z m308 -26 c9 2
15 -1 11 -6 -3 -5 4 -9 15 -9 12 0 21 -4 21 -10 0 -5 7 -10 16 -10 9 0 18 -9
21 -20 3 -11 13 -20 22 -21 11 0 12 -2 3 -6 -10 -4 -8 -9 7 -20 12 -8 21 -21
21 -29 0 -8 5 -14 10 -14 6 0 10 -5 10 -12 0 -6 8 -20 18 -31 9 -11 11 -17 4
-13 -7 4 -4 -7 7 -25 11 -18 18 -36 15 -41 -3 -4 0 -8 5 -8 6 0 11 -13 11 -30
0 -16 4 -30 9 -30 13 0 21 -40 8 -41 -9 0 -9 -2 -1 -5 7 -3 10 -13 7 -23 -3
-10 0 -22 7 -26 8 -5 8 -11 -1 -22 -10 -12 -10 -16 2 -24 8 -5 9 -9 4 -9 -6 0
-11 -10 -12 -22 -1 -11 -8 -25 -15 -29 -7 -5 -9 -9 -4 -9 6 0 1 -6 -9 -14 -11
-8 -23 -12 -27 -10 -5 3 -8 0 -8 -6 0 -6 -4 -8 -10 -5 -5 3 -20 8 -32 10 -24
5 -64 46 -73 76 -4 11 -11 17 -16 14 -5 -4 -9 3 -9 14 0 12 -4 21 -10 21 -5 0
-10 7 -10 15 0 8 -5 15 -11 15 -5 0 -8 4 -4 9 3 5 -1 16 -9 24 -8 8 -12 17 -9
21 4 3 0 6 -8 6 -11 0 -11 2 1 10 13 8 12 10 -2 10 -13 0 -18 8 -18 29 0 16
-7 34 -15 41 -9 7 -13 20 -10 28 3 9 1 18 -5 22 -5 3 -11 18 -12 33 -1 15 -5
27 -9 27 -4 0 -6 8 -5 17 2 10 -1 33 -5 52 -7 33 4 82 18 80 24 -4 43 2 37 12
-4 8 -1 8 12 1 11 -5 27 -8 37 -7z m1801 -7 c-5 -7 -3 -8 7 -2 22 13 60 16 73
5 7 -6 17 -7 21 -3 5 4 5 2 1 -5 -4 -7 3 -14 15 -18 17 -6 19 -9 8 -16 -9 -6
-10 -9 -2 -9 6 0 11 -13 11 -30 -1 -16 -4 -27 -8 -25 -4 2 -6 -6 -5 -20 2 -14
-3 -26 -12 -29 -11 -5 -12 -10 -5 -19 7 -8 7 -18 2 -27 -5 -8 -6 -18 -4 -22 3
-4 0 -8 -6 -8 -6 0 -8 -4 -5 -10 3 -5 2 -10 -4 -10 -5 0 -8 -9 -6 -20 2 -11
-1 -20 -6 -20 -6 0 -7 -4 -4 -10 3 -5 2 -10 -3 -10 -9 0 -27 -47 -24 -62 1 -5
-3 -8 -9 -8 -6 0 -9 -7 -5 -15 3 -9 0 -15 -10 -15 -8 0 -12 -4 -9 -10 3 -5 1
-10 -4 -10 -6 0 -11 -7 -11 -15 0 -8 -5 -15 -12 -15 -6 0 -9 -3 -6 -6 3 -3
-10 -20 -29 -37 -19 -18 -42 -39 -50 -49 -9 -9 -22 -14 -29 -11 -8 3 -14 0
-14 -5 0 -7 -11 -8 -32 -1 -41 11 -50 21 -53 58 -1 17 -6 35 -10 39 -5 4 -5 1
0 -7 6 -10 4 -12 -4 -7 -8 5 -9 12 -3 19 6 7 10 26 10 42 0 17 1 35 2 40 1 6
4 19 5 30 1 11 3 26 3 33 1 7 6 11 11 8 4 -3 8 2 8 12 0 32 15 81 29 93 8 6
11 15 8 20 -3 5 0 9 7 9 7 0 9 3 6 7 -4 3 1 12 11 20 11 10 12 12 2 8 -9 -4
-8 -1 3 8 10 9 18 19 18 24 0 4 9 18 19 31 11 12 20 27 20 33 0 5 4 8 9 5 5
-3 11 1 15 9 3 8 10 15 16 15 6 0 18 7 26 15 18 18 28 20 18 3z m-999 -484 c3
8 7 7 11 -2 3 -6 10 -9 16 -6 18 11 309 6 323 -6 7 -6 20 -8 29 -4 9 3 16 1
16 -4 0 -6 9 -9 19 -7 11 2 22 -3 25 -11 3 -8 12 -14 21 -14 8 0 15 -7 15 -15
0 -8 5 -15 11 -15 5 0 8 -4 5 -9 -3 -5 1 -12 10 -15 8 -3 12 -10 9 -16 -3 -6
0 -13 9 -16 8 -3 13 -14 11 -25 -2 -10 1 -18 8 -16 7 1 11 -4 9 -10 -1 -7 2
-13 6 -13 14 0 7 -86 -8 -105 -13 -17 -13 -18 0 -11 9 4 8 2 -2 -7 -10 -8 -14
-18 -10 -22 4 -5 2 -5 -5 -1 -6 3 -16 -2 -22 -11 -6 -10 -11 -13 -11 -8 0 6
-9 -1 -20 -15 -13 -16 -20 -20 -20 -10 0 9 -5 7 -16 -8 -13 -18 -19 -21 -30
-11 -9 7 -14 8 -14 1 0 -6 -9 -9 -20 -7 -11 2 -20 -1 -20 -6 0 -6 -6 -9 -12
-6 -7 2 -19 -3 -26 -12 -11 -14 -11 -14 -6 2 3 9 2 17 -4 17 -6 0 -12 -5 -14
-11 -2 -7 -25 -12 -51 -12 -28 0 -47 -4 -47 -11 0 -7 -3 -8 -8 -1 -9 14 -55
13 -64 0 -5 -6 -8 -6 -8 1 0 13 -58 13 -77 1 -6 -4 -15 -2 -18 4 -4 5 -13 8
-21 5 -7 -3 -16 -2 -18 3 -3 4 -19 6 -37 3 -24 -3 -30 -1 -24 8 6 9 3 10 -13
1 -15 -8 -23 -7 -32 4 -7 8 -16 12 -22 9 -5 -3 -16 0 -25 8 -13 10 -15 10 -9
0 4 -7 -8 -4 -27 7 -19 11 -38 17 -41 14 -3 -4 -13 2 -22 13 -8 10 -12 13 -9
6 6 -11 3 -11 -14 0 -12 7 -19 19 -16 26 3 7 1 10 -4 7 -5 -3 -16 4 -24 15 -7
11 -16 18 -18 15 -4 -4 -3 86 2 113 1 6 7 12 12 12 5 0 6 8 3 17 -4 10 -4 14
0 10 4 -3 16 10 27 31 11 20 26 41 33 45 8 5 12 12 9 18 -4 5 1 9 9 9 9 0 16
5 16 11 0 5 5 7 10 4 6 -3 10 -1 10 5 0 6 4 9 8 6 5 -3 21 1 36 9 18 10 24 10
19 2 -5 -9 -3 -9 8 0 18 15 64 20 111 12 23 -4 39 -2 43 5z m-49 -636 c3 -4
-1 -5 -10 -4 -8 1 -18 5 -22 8 -3 4 1 5 10 4 8 -1 18 -5 22 -8z"/>
<path d="M1035 1580 c-3 -5 -1 -10 4 -10 6 0 11 5 11 10 0 6 -2 10 -4 10 -3 0
-8 -4 -11 -10z"/>
<path d="M1164 1332 c-11 -10 -26 -16 -34 -14 -8 3 -12 1 -8 -3 8 -8 -15 -35
-31 -35 -5 0 -13 -5 -17 -12 -5 -7 -3 -8 7 -3 12 8 12 6 0 -8 -7 -9 -10 -17
-5 -17 4 0 -1 -7 -12 -16 -10 -8 -12 -12 -4 -8 13 7 13 5 1 -9 -7 -9 -11 -24
-7 -32 3 -8 0 -15 -7 -15 -8 0 -8 -3 2 -9 11 -7 11 -9 0 -14 -9 -4 -8 -6 5 -6
15 -1 16 -4 6 -16 -7 -8 -8 -15 -3 -15 5 0 9 -10 10 -22 2 -22 44 -68 63 -68
5 0 9 -6 7 -12 -1 -7 5 -12 14 -10 8 1 25 -7 37 -18 12 -12 22 -17 22 -13 0 5
9 9 20 10 13 1 18 -2 13 -10 -5 -9 -3 -9 8 -1 8 6 24 10 37 9 12 -1 22 1 22 4
0 3 12 12 28 19 15 7 38 22 52 33 14 11 18 17 10 13 -8 -4 -5 4 8 18 13 14 24
36 25 49 0 13 6 27 12 32 7 5 5 10 -4 16 -9 6 -10 10 -2 16 8 4 9 11 3 18 -5
7 -8 23 -7 36 1 16 -4 25 -17 29 -10 2 -18 9 -18 15 0 18 -61 69 -76 63 -7 -3
-13 0 -11 6 3 18 -100 23 -120 6 -12 -9 -15 -9 -9 0 10 17 3 15 -20 -6z"/>
</g>
</svg>
